<?xml version="1.0" encoding="utf-8"?>
<!-- Generator: Adobe Adobe Illustrator 24.2.0, SVG Export Plug-In . SVG Version: 6.00 Build 0)  -->
<svg version="1.1" xmlns="http://www.w3.org/2000/svg" xmlns:xlink="http://www.w3.org/1999/xlink" x="0px" y="0px" width="500px"
	 height="500px" viewBox="0 0 500 500" style="enable-background:new 0 0 500 500;" xml:space="preserve">
<style type="text/css">
	.st0{display:none;}
	.st1{fill:#FFFFFF;stroke:#000000;stroke-width:5;stroke-miterlimit:10;}
	.st2{opacity:0.9882;fill:#FFFFFF;stroke:#000000;stroke-width:5;stroke-miterlimit:10;}
	.st3{opacity:0.9882;fill:#FFFFFF;stroke:#000000;stroke-width:10;stroke-miterlimit:10;}
	.st4{fill:none;stroke:#000000;stroke-width:5;stroke-miterlimit:10;}
	.st5{fill:none;stroke:#000000;stroke-width:10;stroke-miterlimit:10;}
	.st6{fill:#FFFFFF;stroke:#000000;stroke-width:10;stroke-miterlimit:10;}
</style>
<g id="Layer_2" class="st0">
</g>
<g id="Layer_1">
	<polygon class="st3" points="240.52,57.35 95.64,168.08 79.34,268.77 146.59,373.95 261.6,429.62 377.98,357.24 408.68,263.63 
		321.69,105.8 	"/>
	<line class="st5" x1="134.83" y1="289.83" x2="181.99" y2="289.83"/>
	<line class="st5" x1="408.68" y1="263.63" x2="325.45" y2="279.95"/>
	<line class="st5" x1="261.68" y1="310.86" x2="325.45" y2="279.95"/>
	<line class="st6" x1="82.38" y1="250" x2="134.83" y2="289.83"/>
	<line class="st6" x1="134.83" y1="289.83" x2="106.25" y2="310.86"/>
	<line class="st6" x1="240.52" y1="57.35" x2="260.94" y2="120.03"/>
	<line class="st6" x1="260.94" y1="120.03" x2="325.45" y2="279.95"/>
	<line class="st6" x1="325.45" y1="279.95" x2="261.68" y2="431.43"/>
	<line class="st6" x1="181.99" y1="289.83" x2="261.68" y2="310.86"/>
	<line class="st5" x1="241.19" y1="62.15" x2="181.99" y2="243.48"/>
	<line class="st5" x1="181.99" y1="243.48" x2="181.99" y2="289.83"/>
	<line class="st5" x1="261.68" y1="310.46" x2="286.76" y2="371.86"/>
</g>
</svg>
